# xmcd
#
# Track frame offsets: 
#        150
#        17923
#        36462
#        51830
#        72905
#        81118
#        95207
#        121736
#        137394
#        151462
#
# Disc length: 2259 seconds
#
# Revision: 0
# Processed by: cddbd v1.5.2PL0 Copyright (c) Steve Scherf et al.
# Submitted via: ExactAudioCopy v0.99pb4
#
DISCID=8408d10a
DTITLE=Kashmere Stage Band - Thunder Soul
DYEAR=1971
DGENRE=Funk
TTITLE0=Do You Dig It Man?
TTITLE1=Try A Little Tenderness
TTITLE2=Thunder Soul
TTITLE3=Who Can I Turn To?
TTITLE4=Super Bad
TTITLE5=For Once In My Life
TTITLE6=Don't Mean A Thing
TTITLE7=Lost Love
TTITLE8=Keep On Doing
TTITLE9=Make It Easy On Yourself
EXTD=
EXTT0=
EXTT1=
EXTT2=
EXTT3=
EXTT4=
EXTT5=
EXTT6=
EXTT7=
EXTT8=
EXTT9=
PLAYORDER=
